<svg id="Layer_1" data-name="Layer 1" xmlns="http://www.w3.org/2000/svg" viewBox="0 0 358.88 119.21"><defs><style>.cls-1{fill:#00a5bf;}.cls-2{fill:#0093aa;}.cls-3{fill:#fff;}.cls-4{fill:#88cada;}</style></defs><path class="cls-1" d="M132.13,456.12s54.55-13.36,136.94-6.68,140.27,15.25,183.69-11.86S487.27,366,473.91,337c0,0-42.31,20-133.59,15.59S93.17,296.92,132.13,456.12Z" transform="translate(-126 -337)"/><path class="cls-2" d="M128.28,437.38c1,5.89,2.21,12.1,3.83,18.71,0,0,54.55-13.36,136.93-6.68s140.28,15.25,183.69-11.86c21.26-13.27,30-30.72,31.75-48.47-4.89,11.3-13.74,21.89-28.29,30.66-45,27.11-105,18.54-190.32,11.86-71.64-5.61-122.94,2.9-137.59,5.78Z" transform="translate(-126 -337)"/><path class="cls-3" d="M150.74,416.17a90,90,0,0,0,9.47.63,55.51,55.51,0,0,0,6.48-.26,25,25,0,0,0,4-.72,9.52,9.52,0,0,0,2-.74,5.15,5.15,0,0,0,.55-.35,25.91,25.91,0,0,0,2.69-3.07,16,16,0,0,0,1.76-3.24,8.43,8.43,0,0,0,.62-3.85,8.17,8.17,0,0,0-1.6-4.08,13.57,13.57,0,0,0-4.9-3.88,14,14,0,0,0,3.34-4.26,6.41,6.41,0,0,0,.61-3.47,5.34,5.34,0,0,0-1.19-2.7,10.71,10.71,0,0,0-2-1.93,17.64,17.64,0,0,0-2.75-1.54,20.57,20.57,0,0,0-3.9-.39q-2.17,0-5.92.35t-9.53,1.48l.28,32Zm14.48-22.84a5.12,5.12,0,0,1-.72,1.62,3.63,3.63,0,0,1-1.23,1,3.25,3.25,0,0,1-2.07.22l.16-4.3a5.11,5.11,0,0,1,2.46-.52A1.69,1.69,0,0,1,165,392a2.29,2.29,0,0,1,.27,1.37Zm2.17,11.56a3.29,3.29,0,0,1-.76,1.66,4.2,4.2,0,0,1-1.8,1,9.14,9.14,0,0,1-3.51.2l-.53-4.3a10.41,10.41,0,0,1,3.22-1.07,3.76,3.76,0,0,1,1.94.21,2.15,2.15,0,0,1,1,.88,3.1,3.1,0,0,1,.37,1q.06.42.06.45Zm30.77-.2a18.61,18.61,0,0,0,4.82-4.27,17,17,0,0,0,2.85-5.06,12.63,12.63,0,0,0,.72-5.08,7.95,7.95,0,0,0-5.41-7.2,13.89,13.89,0,0,0-6.42-.57q-7.22.69-15,1.6l.66,32,9.92,1,.12-7,10,7.34,6.35-7.17-8.57-5.62Zm-5.24-12.2a2.92,2.92,0,0,1,1.7.37,1.62,1.62,0,0,1,.69,1,3.11,3.11,0,0,1,.11,1c0,.27,0,.42,0,.45a3.91,3.91,0,0,1-.48,1,6.73,6.73,0,0,1-1.12,1.34,9.68,9.68,0,0,1-1.83,1.31,9.28,9.28,0,0,1-2.56.94l.41-6.56a9.72,9.72,0,0,1,3.12-.8Zm29.19-6.66.86,15.74a14.44,14.44,0,0,1-.12,2.91,8.67,8.67,0,0,1-.41,1.66,3.52,3.52,0,0,1-.25.52c-.44.71-.83,1-1.19,1a1.56,1.56,0,0,1-.94-.53,4.31,4.31,0,0,1-.25-.41,5,5,0,0,1-.39-1.19,5.16,5.16,0,0,1,0-1.89l1.07-19.27-11.73-2.05c-.11,3.8-.2,7-.29,9.68s-.13,4.77-.16,6.35,0,2.82-.08,3.69,0,1.45,0,1.73v.41a17.94,17.94,0,0,0,.82,6.08,10.37,10.37,0,0,0,2.89,4.58,10.69,10.69,0,0,0,5.06,2.46,18.74,18.74,0,0,0,7.34-.17,11.67,11.67,0,0,0,4.65-1.86,10.34,10.34,0,0,0,3-3.2,12.66,12.66,0,0,0,1.49-4.16,24.21,24.21,0,0,0,.37-4.8v-.66c0-.43,0-1.33,0-2.7s-.07-3.32-.14-5.87-.19-5.9-.35-10.08l-11.11,2.05Zm28.55,9.06c-.9-.22-1.75-.41-2.54-.57l-.74-.11a8.52,8.52,0,0,1-.88-.16,2.49,2.49,0,0,1-.74-.29.57.57,0,0,1-.31-.51,1.43,1.43,0,0,1,.66-1.15,4.21,4.21,0,0,1,1.45-.59,7.53,7.53,0,0,1,1.71-.19,10.54,10.54,0,0,1,1.43.08,17.21,17.21,0,0,1,3.16.72c.9.32,1.9.71,3,1.17l2.42-9.47a21.08,21.08,0,0,0-4.76-1.29,25.75,25.75,0,0,0-5.12-.27,18.65,18.65,0,0,0-5.25,1,13,13,0,0,0-4.3,2.41,11.53,11.53,0,0,0-2.91,3.82,10.9,10.9,0,0,0-1,5.1,7,7,0,0,0,.68,3,8.59,8.59,0,0,0,1.6,2.28,10.11,10.11,0,0,0,2.13,1.68,19.53,19.53,0,0,0,2.31,1.19,18,18,0,0,0,2.16.78l1.62.45a14.08,14.08,0,0,1,1.62.74,1.22,1.22,0,0,1,.71,1.06,1.48,1.48,0,0,1-1,1.52,7.42,7.42,0,0,1-2.56.53,7.88,7.88,0,0,1-2.09-.2c-.72-.17-1.4-.36-2.05-.58a16.59,16.59,0,0,1-1.85-.71c-.57-.26-1.07-.47-1.48-.64l-3.11,8.78c.82.38,1.69.74,2.62,1.08a27.26,27.26,0,0,0,2.87.88,25.17,25.17,0,0,0,3,.56,19.74,19.74,0,0,0,2.95.14,22.49,22.49,0,0,0,5.82-1,14.38,14.38,0,0,0,4.65-2.38,10.54,10.54,0,0,0,3-3.77,10.79,10.79,0,0,0,.94-5.15,9.1,9.1,0,0,0-.8-3.55,9.2,9.2,0,0,0-1.8-2.56,11.2,11.2,0,0,0-2.42-1.8c-.89-.49-1.76-.93-2.61-1.31a12.09,12.09,0,0,0-2.21-.7Zm12.39,21.61,10.21-.21.41-9.43,4.3-.61-.53,9,9.51-1.15,3.32-31.65-11.68.57-.49,14.31-6.07.45,1.43-15.05-12,1.15,1.56,32.6Zm43.42-.33a89.88,89.88,0,0,0,9.47.63,55.61,55.61,0,0,0,6.48-.26,24.89,24.89,0,0,0,4-.72,9.52,9.52,0,0,0,2-.74,6.06,6.06,0,0,0,.56-.35,25.73,25.73,0,0,0,2.68-3.07,16,16,0,0,0,1.77-3.24,8.42,8.42,0,0,0,.61-3.85,8.17,8.17,0,0,0-1.6-4.08,13.49,13.49,0,0,0-4.9-3.88,13.86,13.86,0,0,0,3.34-4.26,6.42,6.42,0,0,0,.62-3.47,5.43,5.43,0,0,0-1.19-2.7,10.75,10.75,0,0,0-2-1.93,17.19,17.19,0,0,0-2.75-1.54,20.46,20.46,0,0,0-3.89-.39q-2.17,0-5.93.35t-9.53,1.48l.29,32Zm14.47-22.84a4.91,4.91,0,0,1-.72,1.62,3.45,3.45,0,0,1-1.23,1,3.25,3.25,0,0,1-2.07.22l.17-4.3a5.07,5.07,0,0,1,2.46-.52,1.67,1.67,0,0,1,1.12.58,2.15,2.15,0,0,1,.27,1.37Zm2.17,11.56a3.28,3.28,0,0,1-.75,1.66,4.24,4.24,0,0,1-1.81,1,9.07,9.07,0,0,1-3.5.2l-.54-4.3a10.5,10.5,0,0,1,3.22-1.07,3.81,3.81,0,0,1,1.95.21,2.13,2.13,0,0,1,1,.88,2.86,2.86,0,0,1,.37,1q.06.42.06.45Zm26.49-19.06.86,15.74a13.74,13.74,0,0,1-.12,2.91,8.67,8.67,0,0,1-.41,1.66,3.52,3.52,0,0,1-.25.52c-.44.71-.83,1-1.19,1a1.56,1.56,0,0,1-.94-.53,4.31,4.31,0,0,1-.25-.41,5.45,5.45,0,0,1-.39-1.19,5.16,5.16,0,0,1,0-1.89L348,384.35l-11.73-2.05q-.17,5.7-.28,9.68c-.09,2.65-.14,4.77-.17,6.35s0,2.82-.08,3.69,0,1.45,0,1.73v.41a17.94,17.94,0,0,0,.82,6.08,10.37,10.37,0,0,0,2.89,4.58,10.74,10.74,0,0,0,5.06,2.46,18.74,18.74,0,0,0,7.34-.17,11.78,11.78,0,0,0,4.66-1.86,10.43,10.43,0,0,0,2.95-3.2,12.66,12.66,0,0,0,1.49-4.16,24.21,24.21,0,0,0,.37-4.8v-.66c0-.43,0-1.33,0-2.7s-.07-3.32-.14-5.87-.19-5.9-.35-10.08l-11.11,2.05Zm15.46,30.3a67.48,67.48,0,0,0,7.05.57,39.07,39.07,0,0,0,4.53-.14,17.09,17.09,0,0,0,3.14-.64,23.5,23.5,0,0,0,6.25-4.16,24,24,0,0,0,4.34-5.37,21.78,21.78,0,0,0,2.46-6,21.24,21.24,0,0,0,.64-6,16.79,16.79,0,0,0-1.11-5.45,11.65,11.65,0,0,0-2.83-4.31,10.86,10.86,0,0,0-4.51-2.56,13.79,13.79,0,0,0-6.11-.27q-7.08.85-14.51,2.3l.66,32Zm10.33-21.08a6.6,6.6,0,0,1,3.11-1.6,2.56,2.56,0,0,1,2,.52,4.09,4.09,0,0,1,1.15,1.62,8,8,0,0,1,.53,1.7c.09.48.13.74.13.8v.74a7.31,7.31,0,0,1-.31,1.8A8.07,8.07,0,0,1,381,403a8.7,8.7,0,0,1-2.19,2.25,9.8,9.8,0,0,1-3.79,1.62l.41-11.77Zm20.83,21.08a67.48,67.48,0,0,0,7,.57,39.07,39.07,0,0,0,4.53-.14,17.09,17.09,0,0,0,3.14-.64,23.67,23.67,0,0,0,6.25-4.16,24,24,0,0,0,4.34-5.37,21.78,21.78,0,0,0,2.46-6,21.24,21.24,0,0,0,.64-6,16.79,16.79,0,0,0-1.11-5.45,11.65,11.65,0,0,0-2.83-4.31,10.86,10.86,0,0,0-4.51-2.56,13.79,13.79,0,0,0-6.11-.27q-7.1.85-14.51,2.3l.66,32Zm10.33-21.08a6.6,6.6,0,0,1,3.11-1.6,2.56,2.56,0,0,1,2,.52,4.09,4.09,0,0,1,1.15,1.62,8,8,0,0,1,.53,1.7c.09.48.13.74.13.8v.74a7.82,7.82,0,0,1-.31,1.8,8.35,8.35,0,0,1-1.05,2.32,8.7,8.7,0,0,1-2.19,2.25,9.8,9.8,0,0,1-3.79,1.62l.41-11.77ZM423,389l10.33,14.43v12.05l11,1.48.12-11.81L457,389l-10-6.89L439,393.45l-7.26-11.39L423,389Z" transform="translate(-126 -337)"/><path class="cls-4" d="M154,365.23c5.07-.87,9.29-1.23,13.66-1.87s8.88-1.41,14.63-2.51l2.9-.55,3.92-.63c1.46-.24,3.07-.43,4.78-.67l1-.13,1.15-.12,2.35-.24c1.59-.19,3.23-.3,4.9-.42,6.71-.46,14.08-.68,21.67-.48s15.42.62,23.08,1.26c15.31,1.33,29.94,3.26,40.76,4.63l17.83,2.27,11,1.32c6.86.79,16.4,1.83,27.17,2.63s22.75,1.36,34.41,1.27a322.13,322.13,0,0,0,32.32-1.75c2.31-.2,4.39-.52,6.27-.74s3.55-.41,5-.66l6.58-1a77.78,77.78,0,0,0,14.84-3.94,96.43,96.43,0,0,0,12.65-6c-5.18,0-9.43.19-13.89.43s-9.05.85-14.88,1.83l-6.41,1c-1.43.24-3.06.4-4.89.64s-3.85.51-6.11.71c-9.12,1-20.15,1.63-31.55,1.71s-23.17-.44-33.78-1.23-20.06-1.8-26.86-2.58l-11-1.3-17.79-2.28c-10.83-1.39-25.53-3.34-41.1-4.7s-32-1.86-46-.79c-1.75.13-3.46.24-5.12.43l-2.45.26-1.2.13-1.05.14c-1.79.25-3.47.45-5,.7l-4.09.68-3,.59A65.53,65.53,0,0,0,166,357.87a61.5,61.5,0,0,0-12,7.36Z" transform="translate(-126 -337)"/></svg>